IKResults
version=1
nRows=7
nColumns=40
inDegrees=yes

Units are S.I. units (second, meters, Newtons, ...)
Angles are in degrees.

endheader
time	pelvis_tilt	pelvis_list	pelvis_rotation	pelvis_tx	pelvis_ty	pelvis_tz	hip_flexion_r	hip_adduction_r	hip_rotation_r	knee_angle_r	knee_angle_r_beta	ankle_angle_r	subtalar_angle_r	mtp_angle_r	hip_flexion_l	hip_adduction_l	hip_rotation_l	knee_angle_l	knee_angle_l_beta	ankle_angle_l	subtalar_angle_l	mtp_angle_l	lumbar_extension	lumbar_bending	lumbar_rotation	arm_flex_r	arm_add_r	arm_rot_r	elbow_flex_r	pro_sup_r	wrist_flex_r	wrist_dev_r	arm_flex_l	arm_add_l	arm_rot_l	elbow_flex_l	pro_sup_l	wrist_flex_l	wrist_dev_l
      1.70000000	     15.47910281	     -3.13217767	      5.25154617	     -0.18127917	      0.95101942	      1.04753087	    -14.75801461	      6.78134525	    -19.21358933	     -9.36136804	     -0.16338669	      5.85852587	      7.42702035	     -8.63121903	    -10.46045346	      5.82938413	     -2.73267254	    -45.41698434	     -0.79267591	     10.36347923	     18.12059348	      9.45471457	    -21.70345645	      4.11989316	     -2.56763363	     -1.56476564	    -12.01191990	     -0.49463303	     25.73757836	     89.95437384	      0.00000000	      0.00000000	      7.25806468	      7.63034143	      6.69258404	     22.74284748	     89.95437384	      0.00000000	      0.00000000
      1.71000000	     15.59787605	     -2.78040255	      4.86793229	     -0.17602049	      0.95142182	      1.04845719	    -15.27135011	      6.35768755	    -18.98406922	     -9.40877415	     -0.16421409	      6.15222278	      7.87176094	     -8.06269676	    -10.10588318	      5.27771958	     -2.46320177	    -44.40894898	     -0.77508238	     11.33269531	     18.13102119	      9.23534932	    -21.92080822	      3.64357751	     -2.25513464	     -1.57459200	    -12.12029633	     -0.10310862	     26.40774161	     89.95437384	      0.00000000	      0.00000000	      7.10816495	      7.48446418	      8.15230215	     21.95967979	     89.95437384	      0.00000000	      0.00000000
      1.72000000	     15.60840780	     -2.55848474	      4.56808573	     -0.17095302	      0.95159317	      1.04968176	    -15.63880541	      6.13838989	    -18.66234084	     -9.46297423	     -0.16516006	      6.45901262	      7.78446594	     -7.50017412	     -9.50530938	      4.98469071	     -2.05160374	    -43.47331358	     -0.75875246	     11.87566870	     18.16844766	      9.21538685	    -22.03232082	      3.27718920	     -2.01356134	     -1.50418111	    -12.17366714	      0.34280095	     26.92577407	     89.95437384	      0.00000000	      0.00000000	      6.77030423	      7.61282404	      8.70885051	     21.47728568	     89.95437384	      0.00000000	      0.00000000
      1.73000000	     15.65264148	     -2.36333854	      4.29167072	     -0.16566609	      0.95173451	      1.05086031	    -16.10628533	      5.98086525	    -18.32269819	     -9.37707577	     -0.16366085	      6.62185427	      7.63504025	     -6.97166207	     -8.96114795	      4.75774004	     -1.55147781	    -42.44672009	     -0.74083502	     12.44145307	     18.13775873	      9.16604078	    -22.14635071	      2.94634587	     -1.75002665	     -1.50206490	    -12.18001537	      0.52091159	     27.51423892	     89.95437384	      0.00000000	      0.00000000	      6.45503470	      7.67109708	      9.40804763	     20.89576558	     89.95437384	      0.00000000	      0.00000000
      1.74000000	     15.74098934	     -2.11250532	      4.09983169	     -0.16034434	      0.95191514	      1.05181298	    -16.62253762	      5.77685441	    -18.04324468	     -9.29206600	     -0.16217715	      6.91082602	      7.45626511	     -6.51301627	     -8.48753853	      4.46619201	     -1.12396504	    -41.33116468	     -0.72136491	     13.03395219	     18.08478945	      9.41711919	    -22.31488506	      2.59269695	     -1.66560686	     -1.43975614	    -12.18407203	      0.86609138	     28.04175364	     89.95437384	      0.00000000	      0.00000000	      6.02757006	      7.80015352	     10.00918834	     20.46715650	     89.95437384	      0.00000000	      0.00000000
      1.75000000	     15.77794020	     -1.93511855	      3.84574113	     -0.15532630	      0.95197019	      1.05285600	    -17.05181982	      5.65311832	    -17.59341725	     -9.20550933	     -0.16066645	      7.10658799	      7.03912318	     -5.84142843	     -7.91415923	      4.27008560	     -0.55987623	    -40.17336437	     -0.70115748	     13.55704129	     18.02084197	      9.55192859	    -22.46260362	      2.29668711	     -1.44398207	     -1.41313461	    -12.19191384	      1.03640623	     28.67077486	     89.95437384	      0.00000000	      0.00000000	      5.68884246	      7.94258158	     10.40906390	     19.97769583	     89.95437384	      0.00000000	      0.00000000
      1.76000000	     15.90063764	     -1.66243651	      3.61825295	     -0.14988435	      0.95211554	      1.05373329	    -17.58937946	      5.39364592	    -17.44282896	     -9.17513709	     -0.16013635	      7.37710373	      7.01871233	     -5.63285554	     -7.52182910	      3.98372439	      0.03260571	    -38.89647206	     -0.67887150	     13.88148110	     17.93368226	      9.33870593	    -22.65282491	      1.92201310	     -1.29712852	     -1.42958799	    -12.18708908	      1.22992428	     29.27170480	     89.95437384	      0.00000000	      0.00000000	      5.27599290	      8.07819126	     10.79408667	     19.47779250	     89.95437384	      0.00000000	      0.00000000
